<?xml version="1.0" encoding="UTF-8"?>
<svg width="128" height="128" version="1.1" viewBox="0 0 128 128" xmlns="http://www.w3.org/2000/svg">
 <path d="m34.055 0.0034264c-0.71423-0.010697-1.4183 0.17003-2.0391 0.52341l-30 17.148c-1.245 0.7114-2.014 2.0347-2.0156 3.4686v34.287c0.001635 1.4339 0.77063 2.7572 2.0156 3.4686l27.984 15.991v31.967c0.0016 1.4339 0.77063 2.7572 2.0156 3.4686l30 17.148c1.2297 0.70244 2.7391 0.70244 3.9688 0l30-17.148c1.245-0.71139 2.014-2.0347 2.0156-3.4686v-31.967l27.984-15.991c1.245-0.7114 2.014-2.0347 2.0156-3.4686v-34.287c-2e-3 -1.4339-0.77062-2.7572-2.0156-3.4686l-30-17.148c-1.2297-0.70245-2.7391-0.70245-3.9688 0l-28.016 16.007-28.016-16.007c-0.58855-0.33498-1.2525-0.51508-1.9297-0.52341zm-0.054688 8.6089v29.639l-26 14.843v-29.623zm60 0v29.639l-30 17.124v64.012l-26-14.859 0.007812-34.209 25.992-14.945v-29.623z" fill="#386852"/>
</svg>
